<mxfile host="app.diagrams.net" modified="2023-06-10T06:47:34.957Z" agent="Mozilla/5.0 (Windows NT 10.0; Win64; x64) AppleWebKit/537.36 (KHTML, like Gecko) Chrome/114.0.0.0 Safari/537.36" etag="hSfy5dW5KIOJtANvz-ou" version="21.3.8" type="device">
  <diagram name="페이지-1" id="JEbIQx0ynoMhmLF5cd2R">
    <mxGraphModel dx="904" dy="550" grid="1" gridSize="10" guides="1" tooltips="1" connect="1" arrows="1" fold="1" page="1" pageScale="1" pageWidth="827" pageHeight="1169" math="0" shadow="0">
      <root>
        <mxCell id="0" />
        <mxCell id="1" parent="0" />
        <mxCell id="azq_zZ3tP63oLUITT76l-1" value="actor(카메라,분석자,저장자,출력)" style="ellipse;whiteSpace=wrap;html=1;" parent="1" vertex="1">
          <mxGeometry x="60" y="270" width="120" height="80" as="geometry" />
        </mxCell>
        <mxCell id="azq_zZ3tP63oLUITT76l-2" value="" style="endArrow=none;html=1;rounded=0;exitX=1;exitY=0;exitDx=0;exitDy=0;" parent="1" source="azq_zZ3tP63oLUITT76l-1" edge="1">
          <mxGeometry width="50" height="50" relative="1" as="geometry">
            <mxPoint x="210" y="200" as="sourcePoint" />
            <mxPoint x="240" y="230" as="targetPoint" />
          </mxGeometry>
        </mxCell>
        <mxCell id="azq_zZ3tP63oLUITT76l-3" value="" style="endArrow=none;html=1;rounded=0;" parent="1" edge="1">
          <mxGeometry width="50" height="50" relative="1" as="geometry">
            <mxPoint x="180" y="309.5" as="sourcePoint" />
            <mxPoint x="280" y="309.5" as="targetPoint" />
          </mxGeometry>
        </mxCell>
        <mxCell id="azq_zZ3tP63oLUITT76l-4" value="" style="endArrow=none;html=1;rounded=0;" parent="1" edge="1">
          <mxGeometry width="50" height="50" relative="1" as="geometry">
            <mxPoint x="160" y="340" as="sourcePoint" />
            <mxPoint x="240" y="380" as="targetPoint" />
          </mxGeometry>
        </mxCell>
        <mxCell id="azq_zZ3tP63oLUITT76l-5" value="객체인식" style="ellipse;whiteSpace=wrap;html=1;" parent="1" vertex="1">
          <mxGeometry x="240" y="190" width="120" height="80" as="geometry" />
        </mxCell>
        <mxCell id="azq_zZ3tP63oLUITT76l-6" value="음성 정보 출력" style="ellipse;whiteSpace=wrap;html=1;" parent="1" vertex="1">
          <mxGeometry x="280" y="270" width="120" height="80" as="geometry" />
        </mxCell>
        <mxCell id="azq_zZ3tP63oLUITT76l-7" value="데이터 전송" style="ellipse;whiteSpace=wrap;html=1;" parent="1" vertex="1">
          <mxGeometry x="240" y="350" width="120" height="80" as="geometry" />
        </mxCell>
        <mxCell id="azq_zZ3tP63oLUITT76l-8" value="" style="endArrow=none;html=1;rounded=0;entryX=0.5;entryY=1;entryDx=0;entryDy=0;exitX=0.5;exitY=0;exitDx=0;exitDy=0;" parent="1" target="azq_zZ3tP63oLUITT76l-1" edge="1" source="azq_zZ3tP63oLUITT76l-9">
          <mxGeometry width="50" height="50" relative="1" as="geometry">
            <mxPoint x="120" y="410" as="sourcePoint" />
            <mxPoint x="80" y="370" as="targetPoint" />
          </mxGeometry>
        </mxCell>
        <mxCell id="azq_zZ3tP63oLUITT76l-9" value="잘못된 학습 개선" style="ellipse;whiteSpace=wrap;html=1;" parent="1" vertex="1">
          <mxGeometry x="90" y="410" width="120" height="80" as="geometry" />
        </mxCell>
      </root>
    </mxGraphModel>
  </diagram>
</mxfile>
